<?xml version="1.0" standalone="no"?>
<!DOCTYPE svg PUBLIC "-//W3C//DTD SVG 20010904//EN"
 "http://www.w3.org/TR/2001/REC-SVG-20010904/DTD/svg10.dtd">
<svg version="1.0" xmlns="http://www.w3.org/2000/svg"
 width="1024.000000pt" height="768.000000pt" viewBox="0 0 1024.000000 768.000000"
 preserveAspectRatio="xMidYMid meet">

<g transform="translate(0.000000,768.000000) scale(0.100000,-0.100000)"
fill="#000000" stroke="none">
<path d="M3480 7646 c-111 -83 -234 -221 -146 -162 14 9 33 16 43 16 12 0 4
-14 -30 -48 -46 -47 -62 -80 -32 -69 8 4 17 2 20 -2 6 -11 -21 -65 -42 -82
-14 -12 -52 -87 -57 -114 -1 -5 -12 -36 -24 -68 -28 -74 -28 -81 3 -61 31 20
31 14 1 -61 -14 -33 -23 -61 -21 -63 2 -2 13 1 24 8 18 9 21 8 21 -10 0 -12
-9 -43 -20 -69 -17 -38 -19 -53 -10 -75 5 -15 10 -41 10 -58 0 -17 7 -39 16
-49 10 -12 20 -49 25 -101 4 -46 13 -121 20 -168 6 -47 12 -110 14 -140 1 -30
9 -96 17 -147 11 -74 12 -97 2 -115 -7 -13 -15 -31 -18 -42 -4 -10 -12 -16
-20 -13 -26 10 -49 -83 -43 -172 8 -102 42 -257 70 -321 9 -19 18 -43 21 -52
9 -31 29 -20 24 12 -5 31 5 49 17 30 3 -5 16 -10 29 -10 14 0 27 -9 33 -22 31
-69 38 -78 54 -78 36 0 37 93 3 132 -14 15 -15 30 -8 100 11 97 2 130 -36 145
-31 12 -44 47 -24 64 11 9 16 6 23 -14 5 -13 17 -27 25 -30 9 -4 16 -13 16
-22 0 -8 4 -15 9 -15 9 0 23 48 40 135 15 78 32 126 51 145 17 17 22 18 48 4
28 -13 49 -60 31 -66 -4 -2 1 -14 12 -27 22 -27 40 -20 22 8 -6 10 -8 23 -3
30 5 8 12 -7 20 -40 15 -63 48 -146 70 -173 59 -75 100 -110 168 -144 72 -35
74 -37 46 -42 -35 -7 -66 -1 -58 11 3 5 0 9 -6 9 -6 0 -8 5 -4 12 5 8 2 9 -10
5 -10 -4 -20 -7 -22 -7 -2 0 -4 -5 -4 -11 0 -5 4 -7 10 -4 5 3 20 -5 32 -19
22 -24 30 -26 163 -32 178 -8 190 -13 191 -82 0 -37 -3 -52 -13 -52 -17 0 -17
-26 1 -33 14 -5 29 -47 17 -47 -13 0 1 -95 16 -107 9 -7 14 -22 11 -35 -3 -18
0 -23 19 -24 20 -2 22 1 12 13 -10 11 -9 17 4 31 16 15 18 15 32 -3 14 -19 14
-18 15 13 0 22 5 32 16 32 8 0 13 -4 10 -9 -3 -5 4 -11 17 -15 37 -10 55 -7
61 10 5 13 1 14 -24 9 -33 -7 -60 7 -60 32 0 13 3 13 15 3 8 -6 29 -16 47 -20
18 -4 42 -11 52 -16 13 -5 17 -4 12 4 -3 6 -2 13 4 17 20 12 9 25 -22 26 l-33
1 33 9 c17 5 32 14 32 19 0 6 4 10 9 10 5 0 8 -7 7 -16 0 -9 6 -21 15 -27 21
-13 69 -1 69 18 0 8 5 15 10 15 6 0 10 -7 10 -15 0 -8 7 -15 15 -15 9 0 18 7
21 15 5 11 22 15 69 15 35 0 66 4 69 8 3 5 -11 16 -30 25 -19 10 -33 21 -29
26 3 5 0 16 -7 23 -38 41 -61 71 -47 60 9 -6 19 -9 22 -6 8 9 -34 64 -45 58
-4 -3 -11 3 -15 13 -9 27 -34 53 -50 53 -8 0 -12 -4 -9 -8 2 -4 1 -14 -5 -22
-7 -12 -9 -11 -9 6 0 12 9 33 21 48 17 22 19 31 10 57 -14 40 -5 62 19 47 27
-17 54 6 39 34 -6 11 -8 30 -5 43 7 28 -17 40 -61 29 l-28 -7 19 22 c13 14 26
19 40 16 18 -5 19 -4 6 7 -9 8 -14 25 -12 42 2 16 -2 32 -9 37 -10 6 -10 12 4
27 12 14 14 21 5 30 -8 8 -7 18 6 37 10 14 16 36 14 48 -4 37 23 65 67 67 22
2 48 -1 58 -5 15 -6 40 -51 72 -125 3 -8 17 -33 30 -55 14 -22 29 -50 35 -62
5 -13 14 -23 20 -23 5 0 13 -12 16 -27 10 -39 79 -140 132 -192 24 -25 51 -60
58 -78 8 -18 21 -33 30 -33 29 0 79 -33 143 -94 108 -103 171 -170 171 -182 0
-7 6 -14 12 -16 15 -5 18 -145 5 -191 -5 -17 -4 -26 1 -23 29 17 35 194 9 245
-9 19 -14 38 -10 44 3 5 0 8 -7 5 -16 -5 -70 45 -70 66 0 9 -7 16 -15 16 -8 0
-15 7 -15 15 0 8 -7 15 -16 15 -8 0 -13 4 -10 9 3 5 -7 23 -23 40 -17 18 -31
42 -33 53 -3 20 5 23 86 39 111 22 125 27 107 38 -9 6 -7 10 8 14 13 3 19 1
14 -5 -3 -6 -2 -9 3 -6 5 2 30 15 56 28 93 45 156 135 198 280 12 41 24 84 27
94 4 15 8 11 19 -20 8 -21 14 -48 14 -58 0 -11 3 -17 6 -13 5 5 8 38 13 170 1
24 6 37 15 37 8 0 17 7 20 16 3 8 10 13 15 9 18 -10 21 13 6 41 -14 28 -19
124 -6 124 26 0 42 190 44 510 0 30 5 58 10 62 7 4 6 16 -1 35 -6 15 -11 52
-10 81 1 45 4 52 22 52 18 0 15 6 -20 39 -46 44 -60 77 -36 86 13 5 12 9 -4
28 -29 32 -47 73 -40 86 4 6 0 11 -8 11 -21 0 -20 19 1 42 13 14 13 18 2 14
-8 -3 -20 -2 -28 3 -12 8 -12 14 2 44 28 59 22 77 -13 37 -16 -19 -29 -29 -30
-22 0 7 -4 10 -10 7 -5 -3 -10 3 -10 14 0 12 -5 20 -12 19 -6 -2 -14 6 -16 17
-2 11 -13 26 -23 33 -11 7 -19 19 -19 26 0 27 -25 61 -42 58 -11 -2 -18 3 -18
11 0 8 -7 20 -15 27 -10 9 -15 9 -15 1 0 -6 -4 -11 -10 -11 -12 0 -70 60 -70
72 0 5 -4 7 -9 3 -5 -3 -12 -1 -16 5 -4 7 -345 10 -1023 10 l-1017 0 -45 -34z
m1788 -355 c29 -10 55 -21 59 -25 11 -11 23 -6 23 9 0 13 4 13 28 -2 15 -10
29 -20 32 -24 10 -13 50 -20 50 -10 0 6 10 11 22 11 44 0 146 -138 189 -255 4
-11 17 -47 29 -80 12 -33 31 -80 42 -105 25 -54 30 -88 29 -199 0 -46 4 -103
10 -125 38 -151 46 -197 37 -202 -16 -10 11 -22 64 -29 57 -8 63 -15 39 -46
-10 -13 -26 -37 -35 -54 -9 -16 -16 -23 -15 -15 3 30 -1 40 -15 40 -8 0 -22 8
-32 18 -17 16 -17 16 -10 -8 17 -57 18 -195 2 -268 -15 -74 -50 -160 -80 -197
-9 -11 -3 7 14 40 40 82 60 174 59 275 0 190 -54 238 -279 250 l-125 7 118 1
c69 1 117 6 117 12 0 5 -10 12 -23 15 -13 4 -31 17 -41 31 -11 13 -25 24 -34
24 -9 0 -6 -6 9 -19 13 -11 20 -23 16 -27 -4 -5 -11 -4 -15 1 -20 28 -42 37
-57 25 -8 -7 -21 -10 -30 -7 -8 4 -17 2 -20 -3 -4 -6 4 -10 16 -10 12 0 20 -2
17 -5 -2 -3 -31 -1 -64 4 -32 5 -47 9 -31 10 17 1 27 7 27 16 0 13 -11 15 -60
11 -33 -3 -64 -7 -68 -10 -5 -3 -39 -6 -76 -7 -46 -1 -69 -6 -73 -15 -3 -10
-10 -11 -23 -4 -20 11 -54 -16 -65 -50 -4 -14 -11 -18 -18 -12 -7 5 -20 12
-30 15 -15 6 -16 4 -7 -13 6 -10 17 -23 26 -28 24 -13 6 -38 -37 -51 -21 -6
-39 -16 -39 -21 0 -6 -4 -10 -10 -10 -5 0 -10 7 -10 15 0 8 -14 17 -36 21 -34
6 -189 0 -272 -11 -27 -3 -33 -1 -28 10 3 8 1 15 -4 15 -6 0 -10 8 -10 19 0
10 -7 24 -15 31 -10 9 -15 9 -15 1 0 -18 -21 -13 -41 11 -11 11 -19 16 -19 10
0 -7 -4 -12 -10 -12 -5 0 -10 8 -10 18 0 9 -5 24 -10 32 -9 13 -11 13 -19 1
-8 -12 -12 -12 -24 -2 -11 8 -17 9 -22 1 -4 -7 -16 -3 -34 10 -16 10 -31 17
-35 13 -3 -3 -6 -1 -6 5 0 7 -7 12 -16 12 -11 0 -14 -6 -9 -21 6 -19 5 -20
-17 -8 -12 7 -25 13 -28 13 -3 1 -4 4 -3 8 2 5 -5 9 -15 10 -60 5 -78 5 -87
-2 -5 -4 -29 -5 -53 -2 -33 3 -42 8 -37 19 4 12 0 14 -17 8 -13 -3 -38 -6 -55
-6 -18 1 -33 -3 -33 -8 0 -6 -20 -19 -45 -30 -25 -11 -48 -27 -51 -35 -3 -9
-15 -16 -26 -16 -10 0 -16 -4 -13 -10 3 -5 -1 -10 -9 -10 -14 0 -20 -11 -17
-32 2 -19 -166 -52 -190 -37 -11 7 -11 9 2 9 14 0 15 8 8 51 -6 39 -4 58 8 85
9 19 20 34 23 34 4 0 10 28 14 63 9 76 10 71 -2 135 -5 28 -6 52 -1 52 4 0 3
17 -3 37 -6 21 -8 59 -5 84 3 27 1 51 -5 57 -14 14 -1 32 23 32 13 0 19 7 20
23 0 12 3 16 6 10 6 -17 23 -16 23 1 0 16 58 27 63 12 2 -6 22 -1 50 14 41 22
48 23 72 10 25 -13 28 -13 41 5 27 40 46 53 89 59 24 4 48 13 55 21 6 7 23 16
38 20 25 7 25 8 7 15 -15 6 -9 9 28 15 27 4 51 13 54 20 2 7 19 19 36 25 18 7
46 19 64 26 17 8 53 17 80 20 26 3 64 12 83 19 19 7 53 16 75 19 22 3 82 14
134 25 52 10 100 17 108 14 8 -3 19 2 26 10 13 17 76 30 217 47 47 5 105 14
130 19 63 12 59 12 118 -8z m179 -33 c-3 -8 -6 -5 -6 6 -1 11 2 17 5 13 3 -3
4 -12 1 -19z m-1424 -905 c-7 -2 -21 -2 -30 0 -10 3 -4 5 12 5 17 0 24 -2 18
-5z m1649 -104 c44 -11 93 -64 107 -116 25 -89 4 -248 -50 -373 -29 -66 -104
-135 -172 -156 -72 -21 -190 -28 -261 -15 -121 22 -204 85 -262 196 -42 79
-69 200 -56 246 l10 34 1 -33 c1 -29 4 -32 26 -28 13 3 27 0 30 -5 4 -5 1 -9
-4 -9 -18 0 -12 -26 9 -45 24 -22 26 -35 5 -35 -8 0 -15 5 -15 11 0 5 -4 8
-10 4 -13 -8 57 -89 78 -90 4 -1 18 -7 31 -14 29 -16 201 -27 186 -12 -5 5
-37 13 -70 18 -82 11 -75 28 13 29 88 2 166 13 157 22 -3 3 -20 7 -38 8 -59 2
-127 15 -127 25 0 5 9 9 19 9 30 0 51 11 51 26 0 17 37 19 43 2 3 -10 8 -10
18 -2 22 17 89 32 143 33 27 0 53 4 58 9 15 15 -39 46 -122 71 -41 13 -88 30
-105 38 -29 14 -27 14 35 10 40 -3 82 -13 109 -26 23 -12 47 -21 53 -19 7 3
-15 18 -48 35 -59 31 -194 57 -247 47 -13 -2 -16 -1 -7 2 36 17 62 80 39 94
-6 5 37 11 97 15 60 3 113 8 118 9 17 4 120 -6 158 -15z m-1365 -25 c18 -5 21
-10 13 -24 -5 -9 -7 -20 -4 -23 8 -8 -23 -64 -40 -70 -18 -7 -26 1 -26 25 0
10 -5 18 -11 18 -5 0 -8 -4 -4 -9 3 -5 1 -12 -5 -16 -6 -4 -8 -11 -5 -16 6 -9
-21 -11 -127 -11 -32 0 -58 -4 -58 -9 0 -5 -17 -8 -37 -8 -32 2 -33 3 -10 6
17 3 27 9 24 17 -3 6 2 20 9 31 11 15 28 20 79 21 36 1 65 -3 65 -7 0 -5 12
-9 26 -9 14 0 23 4 19 10 -3 6 3 10 14 10 14 0 23 9 27 28 11 46 12 46 51 36z
m-767 -43 c0 -5 3 -16 6 -25 4 -10 1 -16 -9 -16 -20 0 -30 17 -23 35 6 16 26
21 26 6z m1513 -29 c-15 -15 -36 -38 -46 -52 -17 -24 -17 -24 0 8 21 40 50 72
64 72 5 0 -3 -12 -18 -28z m52 -22 c3 -5 1 -10 -4 -10 -6 0 -11 5 -11 10 0 6
2 10 4 10 3 0 8 -4 11 -10z m-168 -72 c-3 -7 -5 -2 -5 12 0 14 2 19 5 13 2 -7
2 -19 0 -25z m-1249 -54 l-3 -59 -5 67 c-3 37 -1 63 3 59 4 -4 7 -35 5 -67z
m-254 23 c2 -30 -17 -42 -34 -22 -9 10 -9 19 0 35 15 28 33 21 34 -13z m1978
-19 c-7 -7 -12 -8 -12 -2 0 14 12 26 19 19 2 -3 -1 -11 -7 -17z m-1637 -85
c-3 -13 -1 -23 5 -23 5 0 10 -7 10 -15 0 -20 -16 -19 -24 1 -3 9 -6 43 -5 77
1 61 1 62 10 22 6 -22 7 -50 4 -62z m45 -4 c0 -5 -7 -9 -15 -9 -15 0 -20 12
-9 23 8 8 24 -1 24 -14z m340 -41 c0 -4 -12 -8 -26 -8 -14 0 -23 4 -20 8 2 4
14 8 25 8 12 0 21 -4 21 -8z m-344 -55 c-3 10 -2 16 3 12 5 -3 12 1 14 7 3 7
6 3 6 -9 1 -17 7 -23 23 -23 17 0 19 -3 10 -12 -22 -22 -12 -31 28 -25 33 4
42 2 51 -15 7 -14 14 -16 23 -9 6 6 55 10 109 10 53 0 115 5 138 11 30 8 44 8
54 0 8 -7 23 -9 34 -5 16 5 22 1 27 -22 4 -15 7 -40 7 -55 0 -17 6 -28 14 -28
7 0 13 -4 13 -10 0 -5 -4 -10 -10 -10 -5 0 -10 -7 -10 -15 0 -23 35 -18 68 10
39 33 54 32 16 -1 -109 -95 -299 -105 -479 -24 -80 36 -175 158 -175 225 0 18
2 18 21 -5 15 -17 19 -19 15 -7z m837 12 c-3 -9 -8 -14 -10 -11 -3 3 -2 9 2
15 9 16 15 13 8 -4z m-638 -25 c4 -6 -14 -10 -47 -9 -42 1 -48 3 -28 9 36 12
68 12 75 0z m192 4 c-3 -3 -12 -4 -19 -1 -8 3 -5 6 6 6 11 1 17 -2 13 -5z
m-847 -54 c0 -11 5 -20 12 -20 19 0 -1 -14 -23 -15 -13 -1 -18 3 -14 12 3 8 5
21 5 29 0 8 5 14 10 14 6 0 10 -9 10 -20z m1141 -33 c-10 -9 -11 -8 -5 6 3 10
9 15 12 12 3 -3 0 -11 -7 -18z m-1167 -143 c3 -106 2 -116 -10 -89 -20 46 -18
232 3 211 2 -2 5 -57 7 -122z m1137 93 c-10 -9 -11 -8 -5 6 3 10 9 15 12 12 3
-3 0 -11 -7 -18z m182 6 c-7 -2 -19 -2 -25 0 -7 3 -2 5 12 5 14 0 19 -2 13 -5z
m522 -83 c3 -6 -1 -7 -9 -4 -18 7 -21 14 -7 14 6 0 13 -4 16 -10z m-1086 -76
c2 -2 -7 -4 -22 -4 -14 0 -29 5 -32 10 -6 10 42 4 54 -6z m461 -5 c0 -6 8 -8
19 -4 15 4 23 -2 35 -26 19 -37 20 -49 6 -49 -13 0 -50 -37 -50 -50 0 -19 -29
-10 -49 16 -25 32 -29 94 -6 94 9 0 18 7 21 15 7 17 24 20 24 4z m-147 -259
c-3 -12 -8 -19 -11 -16 -5 6 5 36 12 36 2 0 2 -9 -1 -20z m237 0 c0 -5 -9 -10
-21 -10 -11 0 -17 5 -14 10 3 6 13 10 21 10 8 0 14 -4 14 -10z m-260 -36 c0
-27 -15 -32 -24 -9 -7 19 3 47 15 39 5 -3 9 -16 9 -30z"/>
<path d="M4990 6247 c0 -8 -5 -17 -12 -19 -7 -3 -8 -7 -2 -10 5 -4 17 0 27 7
15 11 15 14 2 25 -12 10 -15 10 -15 -3z"/>
<path d="M4522 5418 c5 -15 28 -23 28 -10 0 5 -7 13 -16 16 -10 4 -14 1 -12
-6z"/>
<path d="M6041 5946 c-8 -10 -7 -24 4 -57 8 -24 18 -78 23 -119 l8 -75 8 118
c6 88 5 121 -4 132 -15 19 -24 19 -39 1z"/>
<path d="M4730 5815 c-8 -9 -8 -15 -2 -15 18 0 42 12 42 21 0 14 -26 10 -40
-6z"/>
<path d="M3713 5783 c3 -13 1 -23 -5 -23 -5 0 3 -13 19 -29 33 -34 47 -32 15
2 -12 13 -19 26 -16 29 3 4 1 15 -6 25 -10 16 -11 16 -7 -4z"/>
<path d="M3792 5648 c5 -15 28 -23 28 -10 0 5 -7 13 -16 16 -10 4 -14 1 -12
-6z"/>
<path d="M3831 5614 c0 -11 3 -14 6 -6 3 7 2 16 -1 19 -3 4 -6 -2 -5 -13z"/>
<path d="M3785 5610 c-3 -5 1 -10 10 -10 9 0 13 5 10 10 -3 6 -8 10 -10 10 -2
0 -7 -4 -10 -10z"/>
<path d="M3958 5543 c7 -3 16 -2 19 1 4 3 -2 6 -13 5 -11 0 -14 -3 -6 -6z"/>
<path d="M3484 5504 c3 -9 6 -18 6 -20 0 -2 4 -4 9 -4 5 0 7 9 4 20 -3 11 -10
20 -15 20 -6 0 -7 -7 -4 -16z"/>
<path d="M5030 5443 c-24 -9 -50 -35 -44 -44 3 -5 9 -7 14 -4 5 3 28 -3 50
-14 49 -23 74 -18 64 13 -11 38 -50 61 -84 49z"/>
<path d="M3700 5295 c0 -8 5 -15 10 -15 6 0 10 7 10 15 0 8 -4 15 -10 15 -5 0
-10 -7 -10 -15z"/>
<path d="M4270 5150 c0 -5 5 -10 10 -10 6 0 10 5 10 10 0 6 -4 10 -10 10 -5 0
-10 -4 -10 -10z"/>
<path d="M3538 5143 c7 -3 16 -2 19 1 4 3 -2 6 -13 5 -11 0 -14 -3 -6 -6z"/>
<path d="M4068 5125 c-10 -13 -18 -37 -18 -53 0 -52 15 -44 27 15 6 32 11 59
10 60 -1 0 -10 -9 -19 -22z"/>
<path d="M3890 5084 c0 -8 5 -12 10 -9 6 3 10 10 10 16 0 5 -4 9 -10 9 -5 0
-10 -7 -10 -16z"/>
<path d="M4310 5058 c0 -12 -11 -19 -35 -24 -19 -3 -32 -10 -29 -15 3 -5 -13
-9 -35 -9 -23 0 -41 -4 -41 -8 0 -17 26 -32 56 -32 18 0 55 -12 82 -26 27 -14
69 -28 93 -31 24 -3 50 -10 56 -15 7 -6 19 -8 27 -5 7 3 33 1 56 -4 24 -6 50
-7 59 -2 9 4 23 7 31 7 8 1 16 11 18 22 3 23 20 28 117 39 28 3 109 12 180 20
72 8 153 15 180 15 31 0 45 3 37 9 -15 9 -122 7 -252 -4 -80 -7 -83 -7 -67 9
21 21 12 43 -10 25 -9 -8 -17 -9 -21 -3 -10 15 -41 25 -97 32 -103 12 -280 5
-303 -11 -13 -10 -93 -16 -87 -7 2 3 0 12 -6 20 -7 13 -9 12 -9 -2z"/>
<path d="M4130 5050 c0 -5 7 -10 15 -10 8 0 15 5 15 10 0 6 -7 10 -15 10 -8 0
-15 -4 -15 -10z"/>
<path d="M5351 5034 c-29 -8 -58 -17 -64 -21 -6 -4 -22 -8 -35 -9 -27 -3 -38
-11 -30 -20 3 -3 32 0 65 7 32 7 85 13 118 13 47 1 60 5 63 17 2 10 -6 19 -20
23 -30 8 -33 7 -97 -10z"/>
<path d="M4293 4375 c4 -27 3 -45 -3 -45 -6 0 -10 -5 -10 -10 0 -6 8 -5 20 2
21 13 27 38 10 38 -7 0 -7 6 0 19 14 28 12 41 -6 41 -14 0 -16 -7 -11 -45z"/>
<path d="M4330 4340 c0 -5 5 -10 10 -10 6 0 10 5 10 10 0 6 -4 10 -10 10 -5 0
-10 -4 -10 -10z"/>
<path d="M4360 4320 c-8 -5 -11 -12 -7 -16 4 -4 15 0 24 9 18 18 8 23 -17 7z"/>
<path d="M4458 4303 c-2 -10 2 -29 9 -43 13 -24 13 -23 7 15 -8 48 -10 51 -16
28z"/>
<path d="M4417 4303 c-10 -9 -9 -63 1 -63 4 0 6 -17 4 -37 -4 -34 -3 -36 12
-24 12 10 19 11 29 2 8 -6 17 -8 20 -4 4 3 15 -1 26 -11 17 -16 20 -15 42 4
21 17 21 19 4 13 -11 -3 -23 -11 -26 -16 -4 -5 -10 -1 -13 10 -4 11 -21 24
-39 30 -21 6 -32 15 -31 26 1 9 -3 14 -9 10 -6 -4 -7 7 -3 31 6 33 -1 46 -17
29z"/>
<path d="M4346 4281 c-4 -6 -3 -18 2 -27 8 -15 10 -14 16 2 8 20 -8 42 -18 25z"/>
<path d="M4510 4259 c0 -5 5 -7 10 -4 6 3 10 8 10 11 0 2 -4 4 -10 4 -5 0 -10
-5 -10 -11z"/>
<path d="M4380 4230 c0 -5 5 -10 10 -10 6 0 10 5 10 10 0 6 -4 10 -10 10 -5 0
-10 -4 -10 -10z"/>
<path d="M4610 4166 c0 -2 7 -7 16 -10 8 -3 12 -2 9 4 -6 10 -25 14 -25 6z"/>
<path d="M4462 4138 c3 -7 15 -15 28 -16 21 -3 22 -2 11 12 -16 19 -44 21 -39
4z"/>
<path d="M4580 4100 c0 -5 4 -10 9 -10 6 0 13 5 16 10 3 6 -1 10 -9 10 -9 0
-16 -4 -16 -10z"/>
<path d="M4260 4090 c0 -5 5 -10 11 -10 5 0 7 5 4 10 -3 6 -8 10 -11 10 -2 0
-4 -4 -4 -10z"/>
<path d="M4388 4033 c-10 -2 -18 -9 -18 -14 0 -14 30 -11 30 4 0 7 7 4 15 -7
8 -11 18 -17 21 -13 6 5 -20 39 -28 36 -2 -1 -11 -3 -20 -6z"/>
<path d="M4370 3976 c0 -9 5 -16 10 -16 6 0 10 4 10 9 0 6 -4 13 -10 16 -5 3
-10 -1 -10 -9z"/>
<path d="M5750 3801 c0 -5 6 -14 14 -20 8 -7 20 -34 26 -61 13 -54 30 -58 30
-7 0 22 -10 42 -31 65 -31 33 -39 38 -39 23z"/>
<path d="M3686 3658 c-3 -13 -6 -44 -6 -70 0 -47 12 -67 52 -89 25 -13 33 -6
14 13 -19 20 -37 88 -34 129 3 37 -17 51 -26 17z"/>
<path d="M4540 1666 c-309 -11 -350 -15 -390 -33 -25 -11 -56 -33 -70 -47 -24
-27 -25 -33 -24 -154 0 -70 8 -190 17 -267 15 -136 15 -141 -4 -173 -10 -18
-19 -45 -19 -60 0 -15 -9 -45 -19 -65 l-19 -38 26 -11 c19 -7 58 -7 132 1 277
29 465 24 645 -16 90 -20 118 -35 144 -76 39 -63 18 -150 -46 -193 -35 -23
-138 -40 -308 -50 -60 -3 -161 -14 -223 -25 -123 -21 -238 -25 -262 -9 -8 5
-11 10 -6 10 5 0 -5 14 -23 30 -17 17 -31 35 -31 42 0 6 -7 19 -16 29 -8 9
-17 26 -18 36 -3 13 -10 17 -32 15 -16 -2 -30 -5 -32 -7 -7 -7 30 -94 44 -106
16 -13 19 -49 4 -49 -5 0 -10 8 -11 18 0 11 -4 7 -11 -10 -9 -27 -28 -39 -28
-18 0 19 -19 10 -26 -12 -7 -22 -7 -22 -14 -3 -7 19 -7 19 -14 -2 -4 -13 -15
-23 -26 -23 -10 0 -20 -6 -23 -14 -6 -14 -69 -31 -122 -31 -20 0 -30 -5 -30
-15 0 -11 16 -17 60 -21 33 -3 94 -11 135 -17 47 -7 105 -8 155 -2 141 14 259
31 294 42 18 5 46 12 62 14 72 10 117 20 259 57 132 35 351 51 582 44 137 -4
189 -2 195 6 11 14 7 742 -5 942 -9 159 -27 208 -92 248 -33 21 -47 22 -250
23 -118 1 -370 -4 -560 -10z m-490 -1216 c0 -5 -5 -10 -11 -10 -5 0 -7 5 -4
10 3 6 8 10 11 10 2 0 4 -4 4 -10z"/>
<path d="M9198 1609 c-2 -7 -40 -12 -105 -13 -56 -1 -105 -5 -109 -9 -4 -4
-15 -7 -24 -7 -9 0 -27 -9 -40 -20 -16 -14 -38 -20 -69 -20 -59 0 -77 -11 -62
-36 9 -17 10 -17 11 -1 0 9 7 17 15 17 8 0 15 -5 15 -10 0 -6 -7 -27 -15 -47
-8 -19 -15 -37 -15 -39 0 -2 18 -4 40 -4 33 0 40 -3 40 -20 0 -17 4 -19 28
-14 34 9 41 14 16 14 -42 1 14 20 62 21 27 1 52 6 55 12 4 5 17 2 32 -8 17
-11 34 -14 48 -10 18 6 21 4 16 -9 -4 -10 1 -20 16 -27 12 -7 26 -19 31 -27 6
-11 10 -12 16 -2 6 9 10 6 15 -9 5 -16 12 -20 25 -16 13 4 20 0 25 -15 3 -11
15 -25 26 -30 12 -7 19 -21 19 -40 0 -16 7 -33 16 -38 12 -7 16 -24 16 -68 0
-33 6 -73 13 -89 7 -17 14 -25 14 -18 1 6 18 -6 39 -28 29 -29 47 -39 71 -39
36 0 86 39 95 76 4 13 11 24 16 24 6 0 10 6 10 14 0 8 11 23 25 34 19 16 25
29 25 61 0 28 5 44 15 47 8 4 15 12 15 19 0 7 18 28 40 45 27 21 40 40 40 56
0 18 5 24 22 24 12 0 30 7 40 17 17 15 18 15 18 0 0 -13 9 -17 40 -17 39 0 40
1 40 34 0 33 -1 34 -50 38 -35 4 -55 11 -67 27 -10 12 -29 28 -43 35 -14 7
-24 18 -23 24 2 6 -9 14 -25 17 -15 4 -46 10 -69 16 -23 5 -58 9 -78 9 -20 0
-53 9 -75 20 -30 15 -59 20 -125 20 -50 0 -85 4 -85 10 0 14 -77 13 -82 -1z"/>
<path d="M238 1480 c-4 -12 -71 -21 -78 -10 -3 5 -6 -26 -6 -68 -1 -42 -8
-120 -16 -172 -16 -99 -17 -152 -3 -183 4 -10 8 -46 10 -80 4 -115 5 -125 15
-102 8 19 9 19 9 -2 1 -33 41 -69 86 -78 51 -10 235 -22 235 -15 0 3 11 60 25
128 14 67 26 142 27 167 0 25 5 45 10 45 4 0 8 16 8 36 0 28 -3 35 -15 30 -9
-3 -20 2 -27 13 -6 11 -18 17 -25 14 -8 -3 -13 2 -13 15 0 12 -4 23 -9 27 -5
3 -17 30 -26 60 -10 35 -21 55 -30 55 -8 0 -15 7 -15 16 0 25 -41 53 -80 55
l-35 2 35 6 c28 5 31 8 15 13 -11 3 -37 13 -57 22 -21 9 -38 12 -40 6z"/>
<path d="M8770 1475 c0 -16 16 -20 24 -6 3 5 -1 11 -9 15 -9 3 -15 0 -15 -9z"/>
<path d="M10133 1451 c-16 -14 -23 -30 -23 -55 0 -25 -4 -36 -15 -36 -8 0 -15
-7 -15 -15 0 -9 -9 -15 -22 -15 -26 -1 -58 -22 -58 -39 0 -6 -7 -11 -16 -11
-15 0 -71 -38 -105 -71 -23 -23 -38 -93 -29 -134 5 -24 4 -35 -4 -35 -6 0 -3
-5 7 -11 9 -5 17 -16 17 -23 0 -19 23 -26 81 -26 27 0 49 -4 49 -10 0 -5 11
-10 25 -10 14 0 25 -6 25 -13 0 -9 17 -13 54 -14 30 -1 68 -9 84 -17 17 -9 36
-16 42 -16 7 0 10 93 10 285 l0 285 -42 0 c-27 -1 -51 -8 -65 -19z"/>
<path d="M8940 635 c0 -54 41 -344 60 -416 20 -80 28 -94 58 -96 44 -3 95 -15
117 -28 11 -6 38 -13 60 -14 22 -2 44 -7 50 -12 5 -5 15 -9 22 -9 7 0 32 -13
55 -30 l41 -30 419 0 418 0 0 140 0 140 -41 0 c-41 0 -104 -23 -116 -43 -4 -6
0 -8 10 -4 40 16 52 19 32 6 -29 -18 -29 -17 -15 -34 9 -11 10 -19 3 -26 -7
-7 -19 -2 -37 16 -19 19 -26 22 -26 10 0 -8 5 -15 10 -15 21 0 9 -15 -12 -16
-13 0 -49 -3 -80 -7 -41 -4 -58 -2 -59 6 0 7 -7 -2 -15 -20 -7 -17 -18 -34
-23 -37 -16 -10 -111 16 -111 31 0 7 -6 13 -12 13 -10 0 -10 2 -1 8 8 5 7 14
-6 31 -14 18 -16 32 -11 63 4 22 14 44 21 48 8 6 12 28 11 64 -1 41 2 54 12
50 18 -7 66 34 66 56 0 22 -48 63 -67 56 -7 -3 -13 1 -13 9 0 11 -13 15 -50
15 -28 0 -59 5 -70 12 -14 9 -24 9 -42 1 -13 -7 -39 -14 -58 -17 -19 -2 -51
-12 -70 -22 -21 -11 -70 -20 -128 -25 -52 -4 -99 -12 -105 -18 -6 -6 -19 -11
-28 -11 -21 0 -74 28 -103 53 -11 10 -31 20 -43 23 -13 4 -23 9 -23 14 0 4
-18 15 -40 25 -23 10 -45 26 -50 34 -5 9 -9 12 -10 6z m744 -302 c-12 -12 -14
-27 -10 -55 14 -84 -50 -146 -120 -117 l-29 12 43 7 c46 7 66 22 77 58 5 16 2
24 -11 29 -10 4 -19 2 -22 -5 -2 -7 -10 -12 -19 -12 -8 0 7 23 38 55 28 30 56
52 60 49 5 -3 2 -13 -7 -21z m-64 -8 c-3 -5 -17 -9 -31 -7 -53 6 -103 -70 -69
-104 7 -7 2 -18 -16 -35 -15 -13 -24 -18 -19 -10 4 8 7 33 6 55 -2 51 14 90
42 104 27 14 94 11 87 -3z m93 -70 c-3 -9 -8 -14 -10 -11 -3 3 -2 9 2 15 9 16
15 13 8 -4z m7 -55 c6 -11 7 -20 2 -20 -6 0 -12 9 -15 20 -3 11 -3 20 -1 20 2
0 8 -9 14 -20z"/>
<path d="M3825 410 c-3 -5 -1 -10 4 -10 6 0 11 5 11 10 0 6 -2 10 -4 10 -3 0
-8 -4 -11 -10z"/>
<path d="M3351 364 c0 -11 3 -14 6 -6 3 7 2 16 -1 19 -3 4 -6 -2 -5 -13z"/>
<path d="M10115 300 c-3 -5 -1 -10 4 -10 6 0 11 5 11 10 0 6 -2 10 -4 10 -3 0
-8 -4 -11 -10z"/>
<path d="M10011 264 c0 -11 3 -14 6 -6 3 7 2 16 -1 19 -3 4 -6 -2 -5 -13z"/>
<path d="M9957 253 c-4 -3 -7 -11 -7 -17 0 -6 5 -5 12 2 6 6 9 14 7 17 -3 3
-9 2 -12 -2z"/>
<path d="M9770 238 c0 -9 5 -20 11 -23 17 -11 18 -2 3 19 -12 17 -14 17 -14 4z"/>
<path d="M345 218 c-4 -9 -37 -13 -113 -14 -59 -1 -135 -2 -169 -3 l-63 -1 0
-100 0 -100 148 0 147 0 17 43 c17 42 35 108 43 160 4 28 -2 37 -10 15z"/>
<path d="M9906 201 c-3 -5 1 -11 9 -15 8 -3 15 -1 15 4 0 13 -18 22 -24 11z"/>
<path d="M9778 173 c6 -2 18 -2 25 0 6 3 1 5 -13 5 -14 0 -19 -2 -12 -5z"/>
<path d="M5330 149 c-25 -4 -87 -8 -138 -8 -51 -1 -101 -5 -111 -10 -10 -6
-62 -17 -117 -26 -109 -17 -244 -54 -244 -67 0 -11 29 -10 104 2 33 5 142 16
241 26 275 25 336 38 343 77 4 19 -5 20 -78 6z"/>
<path d="M2053 130 c4 -14 12 -49 19 -77 6 -29 17 -53 23 -53 7 0 3 26 -12 72
-23 71 -41 107 -30 58z"/>
<path d="M4565 15 l-60 -12 60 -2 c33 0 80 6 105 13 l45 15 -45 -1 c-25 0 -72
-6 -105 -13z"/>
</g>
</svg>
